<svg xmlns="http://www.w3.org/2000/svg" viewBox="0 0 400 140"><defs><style>.cls-1,.cls-11,.cls-3,.cls-4{fill:#fff}.cls-1{stroke:#2bc7f4}.cls-1,.cls-11{stroke-miterlimit:10}.cls-1,.cls-11,.cls-3,.cls-6{stroke-width:2px}.cls-2{fill:#80cee9;opacity:.7}.cls-11,.cls-3,.cls-6{stroke:#556a8a}.cls-3,.cls-6{stroke-linecap:round;stroke-linejoin:round}.cls-5{fill:#2bc7f4}.cls-10,.cls-6{fill:none}.cls-7{fill:#e5e5e5}.cls-8{fill:#556a8a}.cls-9{fill:#55d2f6}.cls-12{fill:#5558af}</style></defs><title>team-services-introduction</title><g id="ICONS"><path d="M139.32,107.39A25.36,25.36,0,0,1,139.12,58c1.86-11.89,12-21,23.91-21a24,24,0,0,1,20.38,11.45,24.2,24.2,0,0,1,10.75-2.52c10.36,0,33.33-3.63,30.34,8.46,1.56-.33-4,7.57-2.39,7.57a22.89,22.89,0,0,1,9.69,43.64l-.35.15a21.08,21.08,0,0,1-6.77,1.85l-.57.06c-3,.26-7,.31-13.37.31H144.13A20.74,20.74,0,0,1,139.32,107.39Z" class="cls-1"/><path d="M105.81,73.85a28.34,28.34,0,0,1,56-.89,19.29,19.29,0,0,1,31,9.8,16.86,16.86,0,1,1,4,33.23H101.87A21.56,21.56,0,0,1,85,94.92,21.08,21.08,0,0,1,105.81,73.85Z" class="cls-2"/><g><rect width="124" height="97" x="167" y="24" class="cls-3"/><path d="M229,119a13.75,13.75,0,0,0-9-4H178V18h43c7,0,8,10,8,10s1-10,8-10h43v97H238a13.75,13.75,0,0,0-9,4" class="cls-4"/><rect width="2" height="93.32" x="228" y="25.5" class="cls-5"/><path d="M229,120a13.75,13.75,0,0,0-9-4H178V19h43c7,0,8,10,8,10s1-10,8-10h43v97H238a13.75,13.75,0,0,0-9,4" class="cls-6"/><rect width="15" height="95" x="179" y="20" class="cls-7"/><rect width="15" height="95" x="264" y="20" class="cls-7"/></g><path d="M178,96.49a30.51,30.51,0,1,1,21.56-8.93A30.29,30.29,0,0,1,178,96.49Z" class="cls-4"/><path d="M156.35,43.93a30.25,30.25,0,0,1,42.78,42.78Z" class="cls-7"/><path d="M178,37a29,29,0,1,1-20.5,8.49A28.8,28.8,0,0,1,178,37h0m0-2a31,31,0,1,0,21.91,9.08A30.89,30.89,0,0,0,178,35Z" class="cls-8"/><polygon points="159.62 47.62 172.34 71.66 196.38 84.39 181 62 159.62 47.62" class="cls-9"/><polygon points="159.62 47.62 196.38 84.39 183.66 60.34 159.62 47.62" class="cls-5"/><rect width="64" height="64" x="146" y="34" class="cls-10"/><line x1="178" x2="178" y1="40" y2="47" class="cls-11"/><line x1="178" x2="178" y1="85" y2="92" class="cls-11"/><line x1="152" x2="159" y1="65" y2="65" class="cls-11"/><line x1="197" x2="204" y1="65" y2="65" class="cls-11"/><circle cx="178" cy="66" r="3" class="cls-4"/><g><path d="M265,65.63a5.07,5.07,0,0,0,1.49,1,5,5,0,0,0,3.69,0,4.67,4.67,0,0,0,2.5-2.5,5,5,0,0,0,0-3.69,4.67,4.67,0,0,0-2.5-2.5,5,5,0,0,0-3.69,0,4.67,4.67,0,0,0-2.5,2.5,5,5,0,0,0,0,3.69A5.07,5.07,0,0,0,265,65.63Z" class="cls-12"/><path d="M264,69V84h1.85a11.31,11.31,0,0,0,2.44-.24,6.39,6.39,0,0,0,2.32-.83,5.89,5.89,0,0,0,1.73-1.49,3.81,3.81,0,0,0,.65-2.38V69Z" class="cls-12"/><path d="M256,63.41a4.85,4.85,0,0,0,1.85-.36,4.67,4.67,0,0,0,2.5-2.5,5,5,0,0,0,0-3.69,4.67,4.67,0,0,0-2.5-2.5,4.95,4.95,0,0,0-3.69,0,6.31,6.31,0,0,0-1.19.71V62.4a4,4,0,0,0,1.19.71A6.64,6.64,0,0,0,256,63.41Z" class="cls-12"/><path d="M253,87.58c.6.12.83.24,1.25.3a11.63,11.63,0,0,0,1.37.12,8.77,8.77,0,0,0,2.14-.24,6,6,0,0,0,2-.77,5.26,5.26,0,0,0,1.55-1.49,4.18,4.18,0,0,0,.6-2.38V67H253Z" class="cls-12"/><rect width="18" height="23" x="228" y="59" class="cls-4"/><path d="M220,50.36V92l31,5.36V45Zm22.63,14.29-5.36.24V80.55l-3.57-.24V65l-5.36.24V62l14.29-.89Z" class="cls-12"/></g></g></svg>